<?xml version="1.0" encoding="UTF-8" standalone="no"?>
<!-- Created with Inkscape (http://www.inkscape.org/) -->

<svg
   xmlns:dc="http://purl.org/dc/elements/1.1/"
   xmlns:cc="http://creativecommons.org/ns#"
   xmlns:rdf="http://www.w3.org/1999/02/22-rdf-syntax-ns#"
   xmlns:svg="http://www.w3.org/2000/svg"
   xmlns="http://www.w3.org/2000/svg"
   xmlns:sodipodi="http://sodipodi.sourceforge.net/DTD/sodipodi-0.dtd"
   xmlns:inkscape="http://www.inkscape.org/namespaces/inkscape"
   version="1.1"
   id="svg2"
   xml:space="preserve"
   width="1471.319"
   height="279.91205"
   viewBox="0 0 1471.319 279.91205"
   sodipodi:docname="Icon Med Uni Graz - Horizontal.svg"
   inkscape:export-filename="/home/users/FladischerMichael/Development/MUG/Corporate Identity/motif.png"
   inkscape:export-xdpi="396"
   inkscape:export-ydpi="396"
   inkscape:version="0.92.4 (5da689c313, 2019-01-14)"><metadata
     id="metadata8"><rdf:RDF><cc:Work
         rdf:about=""><dc:format>image/svg+xml</dc:format><dc:type
           rdf:resource="http://purl.org/dc/dcmitype/StillImage" /><dc:title></dc:title></cc:Work></rdf:RDF></metadata><defs
     id="defs6"><clipPath
       clipPathUnits="userSpaceOnUse"
       id="clipPath18"><path
         d="M 41.628,191.297 H 390.42 V 494.604 H 41.628 Z"
         id="path16"
         inkscape:connector-curvature="0" /></clipPath></defs><sodipodi:namedview
     pagecolor="#000000"
     bordercolor="#666666"
     borderopacity="1"
     objecttolerance="10"
     gridtolerance="10"
     guidetolerance="10"
     inkscape:pageopacity="0"
     inkscape:pageshadow="2"
     inkscape:window-width="1920"
     inkscape:window-height="1137"
     id="namedview4"
     showgrid="false"
     inkscape:pagecheckerboard="false"
     inkscape:zoom="0.59467814"
     inkscape:cx="412.46631"
     inkscape:cy="405.82684"
     inkscape:window-x="-8"
     inkscape:window-y="-8"
     inkscape:window-maximized="1"
     inkscape:current-layer="g10"
     fit-margin-top="0"
     fit-margin-left="0"
     fit-margin-right="0"
     fit-margin-bottom="0" /><g
     id="g10"
     inkscape:groupmode="layer"
     inkscape:label="Icon Med Uni Graz"
     transform="matrix(1.3333333,0,0,-1.3333333,-9.2828076,330.95602)"><g
       id="g12"
       transform="matrix(0.71107967,0,0,0.69215033,832.83167,-94.123298)"><g
         id="g14"
         clip-path="url(#clipPath18)"><g
           id="g20"
           transform="translate(321.9265,249.365)"><path
             d="m 0,0 c 13.385,20.594 20.487,44.274 20.487,69.062 0,24.75 -7.102,48.449 -20.487,69.048 l 0.252,0.154 -4.338,5.895 c -0.009,0.024 -0.023,0.042 -0.038,0.056 l -3.721,5.087 -0.173,-0.108 c -24.021,29.496 -60.403,46.977 -98.6,46.977 -38.168,0 -74.541,-17.481 -98.594,-46.977 l -0.178,0.108 -3.722,-5.087 c -0.009,-0.014 -0.009,-0.028 -0.023,-0.032 l -4.348,-5.919 0.239,-0.154 c -13.371,-20.59 -20.473,-44.284 -20.473,-69.048 0,-24.788 7.102,-48.477 20.473,-69.071 l -0.239,-0.141 4.325,-5.89 c 0.023,-0.014 0.037,-0.066 0.046,-0.075 l 3.722,-5.063 0.164,0.084 c 24.067,-29.515 60.44,-46.976 98.608,-46.976 38.197,0 74.579,17.461 98.6,46.976 l 0.173,-0.103 3.721,5.082 c 0.029,0.009 0.038,0.051 0.052,0.075 l 4.324,5.89 z m -74.331,-39.571 c 9.051,11.403 16.504,27.593 21.595,46.958 7.415,-1.753 14.428,-3.862 20.865,-6.288 0.159,-0.061 0.299,-0.117 0.463,-0.169 1.445,-0.565 2.866,-1.131 4.236,-1.72 0.379,-0.164 0.781,-0.337 1.131,-0.486 1.155,-0.505 2.286,-1.015 3.38,-1.534 0.477,-0.234 0.945,-0.453 1.422,-0.687 0.439,-0.196 0.841,-0.435 1.295,-0.655 -14.306,-16.854 -33.423,-29.121 -54.387,-35.419 m 15.297,101.798 c -0.35,-13.657 -1.795,-26.719 -4.095,-38.748 -3.259,0.551 -6.564,1.019 -9.93,1.454 -0.103,0 -0.187,0.014 -0.276,0.032 -2.01,0.258 -4.049,0.468 -6.096,0.688 -0.314,0.028 -0.631,0.061 -0.954,0.089 -1.847,0.173 -3.684,0.346 -5.568,0.49 -0.617,0.047 -1.234,0.075 -1.838,0.127 -1.608,0.107 -3.239,0.21 -4.848,0.299 -1.094,0.07 -2.202,0.089 -3.296,0.126 -1.192,0.052 -2.384,0.103 -3.595,0.14 -2.361,0.071 -4.713,0.108 -7.088,0.108 -2.36,0 -4.726,-0.037 -7.087,-0.108 -1.183,-0.037 -2.375,-0.084 -3.544,-0.117 -1.117,-0.046 -2.235,-0.079 -3.343,-0.149 -1.608,-0.089 -3.179,-0.192 -4.778,-0.299 -0.654,-0.052 -1.281,-0.08 -1.907,-0.127 -1.861,-0.144 -3.67,-0.303 -5.493,-0.49 -0.365,-0.028 -0.706,-0.061 -1.057,-0.094 -2.01,-0.215 -4.007,-0.425 -5.97,-0.678 -0.136,-0.019 -0.276,-0.037 -0.426,-0.047 -3.333,-0.43 -6.624,-0.902 -9.878,-1.444 -2.301,12.029 -3.722,25.091 -4.072,38.748 z m -95.139,13.651 c 0.35,13.638 1.771,26.714 4.072,38.743 3.254,-0.537 6.545,-1.019 9.902,-1.444 0.126,-0.01 0.266,-0.038 0.378,-0.047 1.987,-0.252 3.984,-0.477 5.994,-0.678 0.351,-0.042 0.692,-0.075 1.057,-0.117 1.809,-0.163 3.632,-0.322 5.493,-0.467 0.626,-0.052 1.267,-0.084 1.907,-0.117 1.599,-0.122 3.17,-0.229 4.792,-0.313 1.104,-0.052 2.212,-0.089 3.329,-0.141 1.169,-0.032 2.361,-0.107 3.544,-0.117 2.361,-0.079 4.727,-0.112 7.087,-0.112 2.366,0 4.727,0.033 7.088,0.112 1.211,0.01 2.403,0.085 3.595,0.117 1.094,0.056 2.202,0.089 3.296,0.141 1.609,0.084 3.24,0.196 4.848,0.313 0.604,0.033 1.221,0.065 1.838,0.117 1.884,0.145 3.731,0.304 5.577,0.491 0.314,0.018 0.631,0.051 0.945,0.093 2.047,0.201 4.086,0.426 6.11,0.687 0.075,0.014 0.159,0.028 0.248,0.028 3.371,0.435 6.685,0.907 9.944,1.454 2.3,-12.029 3.745,-25.105 4.095,-38.743 z m 7.073,-65.794 c 4.325,0.734 8.775,1.351 13.287,1.819 0.037,0.019 0.112,0.019 0.15,0.028 2.01,0.21 4.062,0.411 6.11,0.58 0.248,0.004 0.5,0.037 0.767,0.061 1.832,0.149 3.679,0.266 5.54,0.374 0.425,0.014 0.832,0.046 1.243,0.074 1.763,0.089 3.507,0.169 5.293,0.206 0.491,0.023 0.953,0.033 1.458,0.066 2.198,0.046 4.423,0.084 6.634,0.084 2.226,0 4.437,-0.038 6.663,-0.084 0.476,-0.033 0.967,-0.043 1.458,-0.066 1.758,-0.037 3.521,-0.117 5.265,-0.206 0.416,-0.028 0.832,-0.06 1.257,-0.074 1.861,-0.108 3.694,-0.225 5.545,-0.365 0.262,-0.033 0.5,-0.066 0.767,-0.084 2.057,-0.164 4.081,-0.356 6.091,-0.566 0.052,-0.009 0.117,-0.009 0.164,-0.028 4.512,-0.477 8.962,-1.085 13.273,-1.819 -8.495,-32.417 -23.643,-54.489 -40.483,-54.489 -16.825,0 -31.973,22.072 -40.482,54.489 m -46.172,-14.236 c 0.411,0.211 0.828,0.426 1.253,0.65 0.491,0.215 0.996,0.468 1.487,0.716 1.089,0.509 2.183,1.005 3.305,1.486 0.402,0.173 0.776,0.346 1.178,0.524 1.384,0.575 2.805,1.141 4.227,1.683 0.163,0.065 0.299,0.131 0.476,0.192 6.419,2.426 13.437,4.535 20.861,6.288 5.077,-19.365 12.52,-35.555 21.581,-46.958 -20.964,6.298 -40.081,18.565 -54.368,35.419 m -26.546,66.379 h 51.946 c 0.365,-14.68 1.884,-28.617 4.358,-41.455 -10.216,-2.408 -19.72,-5.461 -28.253,-9.131 -0.135,-0.056 -0.261,-0.112 -0.402,-0.149 -0.729,-0.332 -1.407,-0.66 -2.136,-0.987 -1.005,-0.463 -2.034,-0.926 -3.002,-1.398 -0.556,-0.243 -1.07,-0.514 -1.599,-0.795 -0.893,-0.439 -1.795,-0.883 -2.674,-1.369 -10.846,16.568 -17.069,35.526 -18.238,55.284 m 25.489,65.377 c 0.73,-0.336 1.431,-0.659 2.174,-0.972 0.099,-0.065 0.215,-0.108 0.328,-0.145 8.546,-3.679 18.06,-6.756 28.313,-9.14 -2.474,-12.871 -3.993,-26.793 -4.358,-41.469 h -51.946 c 1.169,19.753 7.392,38.72 18.238,55.261 0.865,-0.463 1.772,-0.884 2.651,-1.337 0.552,-0.271 1.057,-0.557 1.622,-0.832 0.968,-0.463 1.973,-0.917 2.978,-1.366 m 55.425,50.067 c -9.061,-11.422 -16.504,-27.584 -21.581,-46.958 -7.387,1.754 -14.376,3.825 -20.772,6.256 -0.266,0.098 -0.528,0.182 -0.781,0.304 -1.332,0.505 -2.627,1.033 -3.885,1.571 -0.491,0.201 -0.977,0.416 -1.458,0.621 -1.029,0.444 -2.062,0.907 -3.039,1.38 -0.566,0.257 -1.132,0.542 -1.697,0.813 -0.388,0.196 -0.767,0.383 -1.169,0.594 14.301,16.854 33.418,29.121 54.382,35.419 m 72.769,-49.641 c -4.297,-0.725 -8.71,-1.347 -13.207,-1.837 -0.089,-0.015 -0.178,-0.024 -0.29,-0.024 -1.959,-0.224 -3.946,-0.402 -5.957,-0.57 -0.303,-0.028 -0.579,-0.047 -0.869,-0.08 -1.823,-0.145 -3.656,-0.257 -5.503,-0.364 -0.416,-0.014 -0.832,-0.056 -1.271,-0.075 -1.744,-0.075 -3.507,-0.164 -5.265,-0.211 -0.477,-0.018 -0.982,-0.037 -1.458,-0.06 -2.226,-0.042 -4.437,-0.075 -6.663,-0.075 -2.211,0 -4.436,0.033 -6.634,0.075 -0.505,0.023 -0.981,0.042 -1.482,0.06 -1.762,0.047 -3.506,0.136 -5.269,0.211 -0.411,0.019 -0.841,0.061 -1.253,0.075 -1.851,0.107 -3.684,0.219 -5.507,0.364 -0.29,0.033 -0.566,0.052 -0.841,0.08 -2.025,0.168 -4.021,0.346 -6.008,0.57 -0.089,0 -0.178,0.009 -0.266,0.024 -4.484,0.49 -8.911,1.098 -13.222,1.813 8.509,32.418 23.642,54.508 40.482,54.508 16.855,0 31.988,-22.09 40.483,-54.484 m 46.191,14.222 c -0.416,-0.211 -0.781,-0.402 -1.169,-0.594 -0.566,-0.271 -1.122,-0.556 -1.697,-0.813 -0.982,-0.473 -2.001,-0.926 -3.044,-1.38 -0.477,-0.205 -0.953,-0.42 -1.458,-0.631 -1.258,-0.528 -2.525,-1.052 -3.843,-1.561 -0.267,-0.113 -0.543,-0.206 -0.819,-0.318 -6.423,-2.417 -13.399,-4.498 -20.762,-6.242 -5.091,19.374 -12.53,35.536 -21.595,46.958 20.964,-6.298 40.081,-18.565 54.387,-35.419 M 6.597,75.878 h -51.97 c -0.364,14.676 -1.87,28.598 -4.348,41.446 11.352,2.669 21.796,6.166 31.058,10.397 0.902,0.402 1.832,0.828 2.725,1.23 0.594,0.308 1.146,0.622 1.735,0.912 0.855,0.42 1.734,0.832 2.538,1.276 C -0.79,114.598 5.419,95.635 6.597,75.878 M -11.665,6.943 c -0.827,0.462 -1.697,0.888 -2.562,1.318 -0.579,0.281 -1.117,0.589 -1.711,0.87 -0.893,0.425 -1.832,0.846 -2.739,1.262 -9.248,4.217 -19.692,7.714 -31.044,10.379 2.478,12.838 3.984,26.784 4.348,41.455 H 6.597 C 5.419,42.469 -0.79,23.511 -11.665,6.943"
             style="fill:#007b3d;fill-opacity:1;fill-rule:nonzero;stroke:none"
             id="path22"
             inkscape:connector-curvature="0" /></g><g
           id="g24"
           transform="translate(112.4915,431.0126)"><path
             d="m 0,0 v -43.273 l 103.537,-23.671 103.527,23.671 V 0 l 12.487,3.235 21.955,5.695 V -1.907 -12.099 c -0.893,-0.412 -1.515,-1.37 -1.515,-2.488 v -2.819 c 0,-1.028 0.533,-1.912 1.309,-2.37 l -5.334,-24.821 h 7.798 7.793 l -5.334,24.821 c 0.776,0.458 1.304,1.342 1.304,2.37 v 2.819 c 0,1.118 -0.621,2.076 -1.505,2.488 v 11.36 10.842 L 277.93,18.373 103.532,63.592 -70.862,18.373 -12.487,3.24 Z"
             style="fill:#007b3d;fill-opacity:1;fill-rule:nonzero;stroke:none"
             id="path26"
             inkscape:connector-curvature="0" /></g></g></g><g
       id="g4611"
       transform="matrix(4.1957353,0,0,4.1957353,-3548.2869,-1629.4375)"><path
         d="m 848.93459,426.70939 h 1.70278 l 2.1835,-7.18828 h 0.0266 l 2.4949,7.18828 h 1.7032 l 1.3261,-8.99571 -1.689,-0.18203 -0.677,7.09764 h -0.0254 l -2.2883,-6.91561 h -1.7156 l -2.0676,6.91561 h -0.0254 l -0.93628,-7.09764 -1.59883,0.18203 1.58633,8.99571"
         style="fill:#ffffff;fill-opacity:1;fill-rule:nonzero;stroke:none;stroke-width:0.09999999"
         id="path256"
         inkscape:connector-curvature="0" /><path
         d="m 861.95957,420.79493 c 0.0129,-0.89687 0.416,-1.98945 1.5078,-1.98945 0.6242,0 1.1184,0.41602 1.5207,0.84531 l 0.9102,-0.83203 c -0.6887,-0.76719 -1.5984,-1.28711 -2.6652,-1.28711 -1.6637,0 -2.859,1.37813 -2.859,3.43203 0,1.7418 1.0789,3.48401 2.989,3.48401 1.8465,0 2.7039,-1.36526 2.7039,-3.65276 z m 2.5996,1.11758 c -0.0386,0.70235 -0.364,1.4168 -1.1961,1.4168 -0.7148,0 -1.2605,-0.7668 -1.3254,-1.4168 h 2.5215"
         style="fill:#ffffff;fill-opacity:1;fill-rule:nonzero;stroke:none;stroke-width:0.09999999"
         id="path258"
         inkscape:connector-curvature="0" /><path
         d="m 872.16387,418.42853 h -0.0254 c -0.3254,-0.49336 -0.9621,-0.87031 -1.625,-0.87031 -1.5996,0 -2.7429,1.39062 -2.7429,3.34062 0,1.76758 1.0132,3.52225 2.8464,3.52225 0.5071,0 1.0918,-0.15545 1.4563,-0.62381 h 0.0262 l 0.039,3.66601 h 1.586 l -0.0391,-9.74961 h -1.5215 z m -0.0906,4.04297 c -0.1953,0.27304 -0.5586,0.59843 -1.1047,0.59843 -0.8586,0 -1.6121,-0.81953 -1.6121,-2.09336 0,-1.20898 0.6629,-2.06679 1.573,-2.06679 0.493,0 1.0528,0.46797 1.1438,1.02734 v 2.53438"
         style="fill:#ffffff;fill-opacity:1;fill-rule:nonzero;stroke:none;stroke-width:0.09999999"
         id="path260"
         inkscape:connector-curvature="0" /><path
         d="m 876.45407,424.26564 h 1.586 l -0.0656,-6.55196 h -1.586 z m 0.0125,2.44375 h 1.586 l -0.0125,-1.5336 h -1.586 l 0.0125,1.5336"
         style="fill:#ffffff;fill-opacity:1;fill-rule:nonzero;stroke:none;stroke-width:0.09999999"
         id="path262"
         inkscape:connector-curvature="0" /><path
         d="m 880.24987,418.65001 3.0285,4.3418 h -2.8723 v 1.27383 h 4.4844 l 0.4812,-0.93633 -3.0554,-4.34141 h 2.8996 v -1.27422 h -4.4985 l -0.4675,0.93633"
         style="fill:#ffffff;fill-opacity:1;fill-rule:nonzero;stroke:none;stroke-width:0.09999999"
         id="path264"
         inkscape:connector-curvature="0" /><path
         d="m 887.63337,424.26564 h 1.5864 l -0.0657,-6.55196 h -1.5859 z m 0.0129,2.44375 h 1.586 l -0.0125,-1.5336 h -1.5864 l 0.0129,1.5336"
         style="fill:#ffffff;fill-opacity:1;fill-rule:nonzero;stroke:none;stroke-width:0.09999999"
         id="path266"
         inkscape:connector-curvature="0" /><path
         d="m 892.02717,424.26564 h 1.5598 v -0.79297 h 0.0261 c 0.5071,0.57187 1.2481,0.97502 2.1192,0.97502 1.3781,0 1.7414,-0.96174 1.7414,-1.97619 0,-0.64961 -0.0129,-1.05274 -0.0129,-1.46875 l -0.0391,-3.28907 h -1.5859 l 0.0129,1.63829 c 0.0137,1.01367 0.0262,1.79335 0.0262,2.57382 0,0.80547 -0.1954,1.0918 -0.8583,1.0918 -0.4933,0 -1.0402,-0.46797 -1.4425,-0.85781 l -0.0262,-4.4461 h -1.5859 l 0.0652,6.55196"
         style="fill:#ffffff;fill-opacity:1;fill-rule:nonzero;stroke:none;stroke-width:0.09999999"
         id="path268"
         inkscape:connector-curvature="0" /><path
         d="m 900.26817,424.26564 h 1.5859 l -0.064,-6.55196 h -1.586 z m 0.0141,2.44375 h 1.5847 l -0.0129,-1.5336 h -1.5859 l 0.0141,1.5336"
         style="fill:#ffffff;fill-opacity:1;fill-rule:nonzero;stroke:none;stroke-width:0.09999999"
         id="path270"
         inkscape:connector-curvature="0" /><path
         d="m 904.84477,419.27384 c 0.5066,-0.29922 1.0398,-0.5457 1.6375,-0.5457 0.4812,0 0.9101,0.23359 0.9101,0.7664 0,1.31289 -3.0547,0.29922 -3.0547,2.925 0,1.35196 1.1438,2.02815 2.418,2.02815 0.7539,0 1.6375,-0.22112 2.2227,-0.71526 l -0.6758,-1.00117 c -0.377,0.28633 -0.9617,0.52031 -1.4434,0.52031 -0.4551,0 -1.0136,-0.24687 -1.0136,-0.78007 0,-1.24805 3.1328,-0.46758 3.1328,-2.84649 0,-1.40429 -1.1961,-2.09336 -2.47,-2.09336 -0.7925,0 -1.573,0.2211 -2.2488,0.62422 l 0.5852,1.11797"
         style="fill:#ffffff;fill-opacity:1;fill-rule:nonzero;stroke:none;stroke-width:0.09999999"
         id="path272"
         inkscape:connector-curvature="0" /><path
         d="m 916.16657,418.7797 c -0.6367,-0.77969 -1.4042,-1.24805 -2.4441,-1.24805 -1.8711,0 -2.8469,1.76797 -2.8469,3.35391 0,1.80742 1.1313,3.56213 3.0813,3.56213 0.9621,0 1.7031,-0.4551 2.2883,-1.1051 l -0.8977,-0.87109 c -0.4023,0.32539 -0.7668,0.62422 -1.3254,0.62422 -0.9883,0 -1.482,-1.06602 -1.482,-2.0668 0,-1.37813 0.6109,-2.14531 1.4043,-2.14531 0.5847,0 0.9746,0.35117 1.3387,0.72812 l 0.8835,-0.83203"
         style="fill:#ffffff;fill-opacity:1;fill-rule:nonzero;stroke:none;stroke-width:0.09999999"
         id="path274"
         inkscape:connector-curvature="0" /><path
         d="m 917.98617,427.46329 h 1.5859 l -0.0254,-3.99062 h 0.0254 c 0.507,0.57187 1.2481,0.97502 2.1192,0.97502 1.3781,0 1.7421,-0.96174 1.7421,-1.97619 0,-0.64961 -0.0136,-1.05274 -0.0136,-1.46875 l -0.0379,-3.28907 h -1.5863 l 0.0128,1.63829 c 0.0125,1.01367 0.0262,2.26171 0.0262,2.78164 0,0.50703 -0.1949,0.88398 -0.8582,0.88398 -0.4941,0 -1.0398,-0.46797 -1.4433,-0.85781 l -0.0255,-4.4461 h -1.586 l 0.0645,9.74961"
         style="fill:#ffffff;fill-opacity:1;fill-rule:nonzero;stroke:none;stroke-width:0.09999999"
         id="path276"
         inkscape:connector-curvature="0" /><path
         d="m 927.25447,420.79493 c 0.0137,-0.89687 0.4161,-1.98945 1.50791,-1.98945 0.62419,0 1.11829,0.41602 1.52139,0.84531 l 0.9106,-0.83203 c -0.68989,-0.76719 -1.5996,-1.28711 -2.6653,-1.28711 -1.664,0 -2.8601,1.37813 -2.8601,3.43203 0,1.7418 1.07891,3.48401 2.9898,3.48401 1.84571,0 2.70431,-1.36526 2.70431,-3.65276 z m 2.60081,1.11758 c -0.039,0.70235 -0.36401,1.4168 -1.19651,1.4168 -0.7144,0 -1.26049,-0.7668 -1.3257,-1.4168 h 2.52221"
         style="fill:#ffffff;fill-opacity:1;fill-rule:nonzero;stroke:none;stroke-width:0.09999999"
         id="path278"
         inkscape:connector-curvature="0" /><path
         d="m 945.44107,420.96368 c -0.026,-2.20976 -1.55899,-3.43203 -3.705,-3.43203 -2.13199,0 -3.62689,1.19649 -3.62689,3.52305 0,1.88477 0.0391,3.76989 0.0528,5.65469 h 1.66309 c -0.013,-1.9109 -0.052,-3.83477 -0.052,-5.74571 0,-1.26093 0.884,-2.00195 1.989,-2.00195 1.313,0 2.002,0.87109 2.015,2.09297 l 0.052,5.65469 h 1.66401 l -0.052,-5.74571"
         style="fill:#ffffff;fill-opacity:1;fill-rule:nonzero;stroke:none;stroke-width:0.09999999"
         id="path280"
         inkscape:connector-curvature="0" /><path
         d="m 948.30108,424.26564 h 1.56 v -0.79297 h 0.025 c 0.507,0.57187 1.249,0.97502 2.12,0.97502 1.378,0 1.742,-0.96174 1.742,-1.97619 0,-0.64961 -0.014,-1.05274 -0.014,-1.46875 l -0.038,-3.28907 h -1.586 l 0.013,1.63829 c 0.012,1.01367 0.025,1.79335 0.025,2.57382 0,0.80547 -0.19401,1.0918 -0.85701,1.0918 -0.49399,0 -1.03999,-0.46797 -1.44399,-0.85781 l -0.025,-4.4461 h -1.586 l 0.065,6.55196"
         style="fill:#ffffff;fill-opacity:1;fill-rule:nonzero;stroke:none;stroke-width:0.09999999"
         id="path282"
         inkscape:connector-curvature="0" /><path
         d="m 956.54307,424.26564 h 1.58601 l -0.066,-6.55196 h -1.58601 z m 0.012,2.44375 h 1.58601 l -0.012,-1.5336 h -1.58601 l 0.012,1.5336"
         style="fill:#ffffff;fill-opacity:1;fill-rule:nonzero;stroke:none;stroke-width:0.09999999"
         id="path284"
         inkscape:connector-curvature="0" /><path
         d="m 960.14307,423.99259 1.58601,0.4551 1.41699,-4.75783 h 0.027 l 1.702,4.75783 1.508,-0.4551 -2.522,-6.27891 h -1.50799 l -2.21001,6.27891"
         style="fill:#ffffff;fill-opacity:1;fill-rule:nonzero;stroke:none;stroke-width:0.09999999"
         id="path286"
         inkscape:connector-curvature="0" /><path
         d="m 969.47707,420.79493 c 0.013,-0.89687 0.416,-1.98945 1.508,-1.98945 0.624,0 1.117,0.41602 1.521,0.84531 l 0.91,-0.83203 c -0.69,-0.76719 -1.599,-1.28711 -2.665,-1.28711 -1.664,0 -2.85999,1.37813 -2.85999,3.43203 0,1.7418 1.07799,3.48401 2.98999,3.48401 1.845,0 2.70401,-1.36526 2.70401,-3.65276 z m 2.6,1.11758 c -0.039,0.70235 -0.36399,1.4168 -1.196,1.4168 -0.715,0 -1.261,-0.7668 -1.327,-1.4168 h 2.523"
         style="fill:#ffffff;fill-opacity:1;fill-rule:nonzero;stroke:none;stroke-width:0.09999999"
         id="path288"
         inkscape:connector-curvature="0" /><path
         d="m 975.72907,424.26564 h 1.586 v -1.19571 l 0.014,-0.0266 c 0.31099,0.75391 0.715,1.37772 1.51999,1.40432 0.15701,0 0.31301,-0.0266 0.468,-0.0653 l -0.25999,-1.52066 c -0.13001,0.0258 -0.25901,0.0519 -0.377,0.0519 -0.61101,0 -1.05201,-0.45507 -1.378,-1.14414 l -0.039,-4.05586 h -1.598 l 0.064,6.55196"
         style="fill:#ffffff;fill-opacity:1;fill-rule:nonzero;stroke:none;stroke-width:0.09999999"
         id="path290"
         inkscape:connector-curvature="0" /><path
         d="m 981.13707,419.27384 c 0.507,-0.29922 1.04001,-0.5457 1.638,-0.5457 0.48201,0 0.91,0.23359 0.91,0.7664 0,1.31289 -3.054,0.29922 -3.054,2.925 0,1.35196 1.143,2.02815 2.418,2.02815 0.753,0 1.637,-0.22112 2.222,-0.71526 l -0.67599,-1.00117 c -0.37601,0.28633 -0.96101,0.52031 -1.443,0.52031 -0.45501,0 -1.014,-0.24687 -1.014,-0.78007 0,-1.24805 3.13299,-0.46758 3.13299,-2.84649 0,-1.40429 -1.196,-2.09336 -2.469,-2.09336 -0.79299,0 -1.574,0.2211 -2.25,0.62422 l 0.585,1.11797"
         style="fill:#ffffff;fill-opacity:1;fill-rule:nonzero;stroke:none;stroke-width:0.09999999"
         id="path292"
         inkscape:connector-curvature="0" /><path
         d="m 987.72807,424.26564 h 1.58601 l -0.065,-6.55196 h -1.586 z m 0.013,2.44375 h 1.586 l -0.013,-1.5336 h -1.586 l 0.013,1.5336"
         style="fill:#ffffff;fill-opacity:1;fill-rule:nonzero;stroke:none;stroke-width:0.09999999"
         id="path294"
         inkscape:connector-curvature="0" /><path
         d="m 995.61907,418.07775 -0.53299,-0.28594 c -0.41601,-0.23359 -0.79301,-0.26016 -0.98901,-0.26016 -1.091,0 -1.77999,0.57227 -1.77999,1.96289 0,0.29922 0,1.00118 0.013,1.57344 l 0.039,2.00195 h -0.884 v 1.19571 l 0.884,-0.0258 0.052,2.33943 h 1.586 l -0.052,-2.33943 1.456,0.0258 v -1.19571 h -1.456 l -0.039,-1.92461 c -0.014,-0.6496 -0.014,-1.24726 -0.014,-1.72851 0,-0.42891 0.144,-0.68867 0.533,-0.68867 0.274,0 0.507,0.15547 0.729,0.31172 l 0.455,-0.96211"
         style="fill:#ffffff;fill-opacity:1;fill-rule:nonzero;stroke:none;stroke-width:0.09999999"
         id="path296"
         inkscape:connector-curvature="0" /><path
         d="m 997.12707,423.1215 c 1.429,1.16992 2.157,1.32619 2.859,1.32619 0.97503,0 1.87203,-0.61135 1.87203,-1.88518 0,-0.23398 0,-0.37695 -0.013,-0.54609 l -0.052,-1.88477 c -0.013,-0.29883 -0.026,-0.5457 -0.026,-0.81875 0,-0.36406 0.182,-0.62383 0.351,-0.62383 0.078,0 0.195,0.0391 0.468,0.16875 l 0.377,-0.79296 c -0.689,-0.45508 -1.066,-0.53321 -1.365,-0.53321 -0.559,0 -1.014,0.32539 -1.13,0.8711 -0.46904,-0.54571 -1.05404,-0.8711 -1.67804,-0.8711 -1.17,0 -1.96299,0.74141 -1.96299,1.91133 0,1.05274 0.677,1.96289 3.51103,2.43047 v 0.4293 c 0,0.72812 -0.313,0.87109 -0.75503,0.87109 -0.324,0 -0.71501,-0.13047 -1.70201,-0.89687 z m 0.675,3.58789 h 1.43001 v -1.4301 h -1.43001 z m 2.52203,-5.84961 c -1.50803,-0.33789 -1.98803,-0.70196 -1.98803,-1.36524 0,-0.48086 0.33801,-0.7664 0.832,-0.7664 0.324,0 0.75401,0.20781 1.13103,0.61054 z m -0.208,5.84961 h 1.43 v -1.4301 h -1.43 v 1.4301"
         style="fill:#ffffff;fill-opacity:1;fill-rule:nonzero;stroke:none;stroke-width:0.09999999"
         id="path298"
         inkscape:connector-curvature="0" /><path
         d="m 1008.2411,418.07775 -0.533,-0.28594 c -0.416,-0.23359 -0.793,-0.26016 -0.989,-0.26016 -1.091,0 -1.78,0.57227 -1.78,1.96289 0,0.29922 0,1.00118 0.013,1.57344 l 0.039,2.00195 h -0.884 v 1.19571 l 0.884,-0.0258 0.052,2.33943 h 1.586 l -0.052,-2.33943 1.456,0.0258 v -1.19571 h -1.456 l -0.039,-1.92461 c -0.013,-0.6496 -0.013,-1.24726 -0.013,-1.72851 0,-0.42891 0.143,-0.68867 0.533,-0.68867 0.273,0 0.507,0.15547 0.728,0.31172 l 0.455,-0.96211"
         style="fill:#ffffff;fill-opacity:1;fill-rule:nonzero;stroke:none;stroke-width:0.09999999"
         id="path300"
         inkscape:connector-curvature="0" /><path
         d="m 1020.4221,422.27697 h 1.741 l -0.065,-4.09532 c -0.988,-0.38984 -2.028,-0.65 -3.016,-0.65 -2.73,0 -4.822,1.95039 -4.822,4.68008 0,2.62576 2.144,4.67966 4.822,4.67966 1.157,0 2.158,-0.2468 2.912,-0.6629 l -0.61,-1.248 c -0.677,0.325 -1.392,0.559 -2.302,0.559 -1.508,0 -3.08,-1.23479 -3.08,-3.32776 0,-1.96328 1.221,-3.32812 3.08,-3.32812 0.481,0 0.924,0.091 1.274,0.23398 l 0.066,3.15938"
         style="fill:#ffffff;fill-opacity:1;fill-rule:nonzero;stroke:none;stroke-width:0.09999999"
         id="path302"
         inkscape:connector-curvature="0" /><path
         d="m 1024.7621,424.26564 h 1.586 v -1.19571 l 0.014,-0.0266 c 0.312,0.75391 0.715,1.37772 1.521,1.40432 0.156,0 0.312,-0.0266 0.467,-0.0653 l -0.259,-1.52066 c -0.13,0.0258 -0.26,0.0519 -0.377,0.0519 -0.612,0 -1.053,-0.45507 -1.378,-1.14414 l -0.039,-4.05586 h -1.599 l 0.064,6.55196"
         style="fill:#ffffff;fill-opacity:1;fill-rule:nonzero;stroke:none;stroke-width:0.09999999"
         id="path304"
         inkscape:connector-curvature="0" /><path
         d="m 1029.7671,423.1215 c 1.43,1.16992 2.159,1.32619 2.861,1.32619 0.974,0 1.871,-0.61135 1.871,-1.88518 0,-0.23398 0,-0.37695 -0.013,-0.54609 l -0.052,-1.88477 c -0.012,-0.29883 -0.026,-0.5457 -0.026,-0.81875 0,-0.36406 0.183,-0.62383 0.352,-0.62383 0.078,0 0.194,0.0391 0.467,0.16875 l 0.377,-0.79296 c -0.689,-0.45508 -1.066,-0.53321 -1.365,-0.53321 -0.559,0 -1.014,0.32539 -1.131,0.8711 -0.468,-0.54571 -1.053,-0.8711 -1.677,-0.8711 -1.17,0 -1.962,0.74141 -1.962,1.91133 0,1.05274 0.675,1.96289 3.509,2.43047 v 0.4293 c 0,0.72812 -0.311,0.87109 -0.754,0.87109 -0.325,0 -0.714,-0.13047 -1.703,-0.89687 z m 3.199,-2.26172 c -1.508,-0.33789 -1.99,-0.70196 -1.99,-1.36524 0,-0.48086 0.338,-0.7664 0.832,-0.7664 0.326,0 0.754,0.20781 1.131,0.61054 l 0.027,1.5211"
         style="fill:#ffffff;fill-opacity:1;fill-rule:nonzero;stroke:none;stroke-width:0.09999999"
         id="path306"
         inkscape:connector-curvature="0" /><path
         d="m 1036.7871,418.65001 3.029,4.3418 h -2.873 v 1.27383 h 4.484 l 0.482,-0.93633 -3.055,-4.34141 h 2.899 v -1.27422 h -4.497 l -0.469,0.93633"
         style="fill:#ffffff;fill-opacity:1;fill-rule:nonzero;stroke:none;stroke-width:0.09999999"
         id="path308"
         inkscape:connector-curvature="0" /></g></g></svg>